<mxfile host="app.diagrams.net" modified="2024-05-28T04:08:21.958Z" agent="Mozilla/5.0 (Windows NT 10.0; Win64; x64) AppleWebKit/537.36 (KHTML, like Gecko) Chrome/125.0.0.0 Safari/537.36" version="24.4.9" etag="TWa22cNaKFlE8bCte6JF" type="github">
  <diagram name="Page-1" id="y2z-nC20dSex-BVrY-W1">
    <mxGraphModel>
      <root>
        <mxCell id="0" />
        <mxCell id="1" parent="0" />
      </root>
    </mxGraphModel>
  </diagram>
</mxfile>
